<svg xmlns="http://www.w3.org/2000/svg" width="1280" height="1280">
  <path
    d="M875.8046875 245.5390625c2.47.52 4.86.68 7.38.84 6.5.52 12.55 2.3 18.8 4.07 2.77.76 5.57 1.43 8.36 2.11 5.33 1.29 10.58 2.58 15.67 4.66 2.63 1.03 5.3 1.86 7.99 2.72 4.21 1.39 8.06 2.97 11.97 5.05 3.89 1.95 7.97 3.45 12.03 5.01v2c.72.1 1.44.21 2.18.31 3.11.76 5.11 2.01 7.82 3.69 1.06.45 2.13.89 3.23 1.35 3.79 1.6 7.19 3.56 10.7 5.71.59.35 1.18.71 1.79 1.07 1.46.9 2.87 1.88 4.28 2.87v2c.88.18.88.18 1.78.36 2.32.67 3.69 1.5 5.61 2.93.93.7.93.7 1.89 1.41.65.49 1.3.98 1.97 1.49.66.5 1.33.99 2.01 1.51 1.32.98 2.64 1.97 3.95 2.96 1.5 1.13 3.02 2.23 4.55 3.33 1.78 1.29 3.52 2.64 5.24 4.01v2c.58.27 1.16.54 1.76.81 2.26 1.21 4.04 2.53 5.99 4.19.61.52 1.22 1.03 1.85 1.56 1.4 1.44 1.4 1.44 1.4 3.44.53.21 1.07.41 1.62.63 3.3 1.9 5.97 4.42 8.38 7.37v2h2c1.69 1.65 1.69 1.65 3.56 3.81.62.71 1.24 1.42 1.88 2.15 1.56 2.04 1.56 2.04 2.56 5.04h2c2.58 2.78 4.73 5.96 7 9 .96 1.28 1.93 2.56 2.9 3.83l3.03 4.05c.5.65 1 1.3 1.51 1.98 3.56 4.8 3.56 4.8 3.56 8.14h2c1.06 1.42 1.06 1.42 2.2 3.4.42.72.84 1.45 1.27 2.19.44.77.88 1.55 1.34 2.35.45.78.9 1.56 1.36 2.36 1.28 2.23 2.55 4.46 3.83 6.7.84 1.46.84 1.46 1.69 2.96 2.06 3.62 3.76 7.17 5.31 11.04.88 1.9 1.78 3.8 2.68 5.69 5.9 12.75 10.75 25.72 14.32 39.31.35 1.3.7 2.59 1.05 3.88 7.88 28.99 9.83 58.11 8.63 88.06-.05 1.31-.05 1.31-.1 2.64-.29 5.43-1.1 10.64-2.13 15.97-.5 2.69-.78 5.35-.95 8.08-.4 4.94-1.32 9.56-2.5 14.37 1.11.08 2.22.17 3.37.25 4.39.54 8.09 2 12.14 3.72 2.23.92 4.43 1.69 6.74 2.41 12.86 4.18 25.15 10.25 36.62 17.39 2.19 1.37 2.19 1.37 5.13 2.23v2c.69.25 1.39.49 2.11.74 3.34 1.46 6.09 3.3 9.07 5.39.57.39 1.13.79 1.71 1.19 4.5 3.18 8.83 6.55 13.08 10.05 2.13 1.77 2.13 1.77 5.03 3.63v2h2v2c.58.27 1.17.53 1.78.8 2.3 1.24 3.82 2.55 5.67 4.39.62.61 1.24 1.23 1.87 1.87.95.96.95.96 1.93 1.94.65.64 1.29 1.28 1.96 1.95.62.61 1.23 1.23 1.86 1.86.85.85.85.85 1.7 1.71 1.23 1.48 1.23 1.48 1.23 3.48h2c1.94 2.12 1.94 2.12 4.12 4.88.72.9 1.45 1.81 2.2 2.74 1.68 2.38 1.68 2.38 1.68 4.38h2c1.71 2.15 3.3 4.31 4.87 6.56.43.61.87 1.22 1.32 1.85 2.87 4.07 5.38 8.24 7.81 12.59.97 1.63 1.95 3.25 2.93 4.88 4.24 7.07 8.14 13.94 11.1 21.65.93 2.37 1.96 4.66 3.03 6.97 1.76 3.91 2.98 7.84 4.15 11.96.81 2.61 1.79 5.08 2.85 7.6 1.57 3.82 2.64 7.49 3.44 11.53.58 2.8 1.32 5.53 2.06 8.29 1.27 4.99 1.91 9.81 2.22 14.94.09 2.23.09 2.23 1.22 4.18.09 1.94.12 3.87.12 5.81.01 1.83.01 1.83.01 3.69v16.66c-.01 3.67-.01 7.33 0 11v12.5c0 1.89 0 3.77-.01 5.66v3.26c-.12 2.42-.12 2.42-1.12 3.42-.14 1.54-.24 3.08-.32 4.63-.49 6.17-2.03 11.87-3.75 17.79-1.01 3.56-1.01 3.56-1.44 7.23-.45 3.07-1.13 5.35-2.37 8.16-1.38 3.29-2.55 6.5-3.5 9.94-4.78 16.45-13.47 31.9-22.62 46.25-.94 1.49-.94 1.49-1.89 3.01-6.53 10.38-6.53 10.38-10.11 14.99h-2c-.27.57-.54 1.15-.82 1.74-1.23 2.34-2.61 4.38-4.18 6.51-.78 1.06-.78 1.06-1.57 2.14-.47.53-.95 1.06-1.43 1.61h-2l-1 3h-2c-.22.54-.44 1.08-.66 1.64-1.81 3.18-4.26 5.57-6.84 8.11-.5.51-1 1.01-1.52 1.54-3.73 3.71-3.73 3.71-5.98 3.71v2c-5.48 5-5.48 5-8 5v2c-1.4 1.26-1.4 1.26-3.38 2.69-.73.53-1.46 1.06-2.21 1.6-.8.57-1.59 1.13-2.41 1.71-.82.58-1.64 1.17-2.48 1.77-12.93 9.12-25.94 16.72-40.36 23.24-1.94.89-3.86 1.8-5.77 2.74-6.59 3.21-13.1 5.49-20.18 7.38-2.66.72-5.24 1.52-7.84 2.43-7.88 2.68-15.73 4.55-24.03 5.19-2.25.24-4.29.69-6.47 1.25-16.25 3.73-33.98 2.14-50.56 2.13h-12.23c-7.14.01-14.27.01-21.4 0h-31.83c-18.96.01-37.91.01-56.86.01-16.59-.01-33.17-.01-49.76-.01h-3.34c-4.47.01-8.94.01-13.41.01-41.92 0-83.83 0-125.75-.01h-111.67c-41.83.01-83.67.01-125.51.01-4.46 0-8.92 0-13.39-.01h-3.33c-16.57 0-33.14 0-49.71.01-18.86 0-37.71 0-56.56-.01h-31.63c-7.05.01-14.1.01-21.15 0h-12.03c-43.22.04-43.22.04-54.38-2.6-2.9-.65-5.81-1.05-8.75-1.47-5.44-.8-10.67-2.01-15.98-3.41-2.8-.74-2.8-.74-6.33-1.15-3.41-.51-6.36-1.42-9.61-2.55-2.68-.94-5.38-1.82-8.08-2.69-10.78-3.52-20.97-7.78-31.03-13.02-2.23-1.07-4.18-1.76-6.59-2.24v-2c-.73-.11-1.46-.22-2.21-.34-2.94-.69-4.91-1.7-7.48-3.28-.87-.52-1.73-1.05-2.62-1.59-.89-.55-1.78-1.1-2.69-1.66-1.34-.82-1.34-.82-2.7-1.65-1.66-1.01-3.32-2.03-4.98-3.05-1.68-1.04-3.39-2.02-5.12-2.98-.73-.48-1.45-.96-2.2-1.45v-2c-.81-.12-.81-.12-1.63-.25-3.25-1.02-5.66-2.71-8.37-4.75v-2l-4-1v-2l-1.88-.94c-1.37-.68-2.75-1.37-4.12-2.06v-2c-.84-.37-.84-.37-1.69-.75-2.73-1.47-4.97-3.24-7.38-5.19-.85-.69-1.71-1.38-2.59-2.09-3.81-3.21-3.81-3.21-5.34-4.97v-2h-2c-1.63-1.37-1.63-1.37-3-3v-2h-2c-1.52-1.5-1.52-1.5-3.25-3.56-.62-.73-1.23-1.45-1.87-2.2-.62-.74-1.24-1.48-1.88-2.24-.6-.67-1.19-1.33-1.8-2.02-.54-.61-1.08-1.22-1.64-1.85-.74-.84-.74-.84-1.5-1.68-1.06-1.45-1.06-1.45-1.06-3.45h-2c-1.45-1.73-2.81-3.54-4.13-5.37-.72-1-1.45-2-2.19-3.03-1.68-2.6-1.68-2.6-1.68-4.6h-2c-1.7-2.26-1.7-2.26-3.57-5.25-.62-.97-1.24-1.95-1.88-2.95-1.31-2.37-2.1-4.16-2.55-6.8h-2c-2.34-4.08-4.67-8.16-7-12.24-.83-1.45-1.67-2.9-2.51-4.34-2.56-4.46-4.61-8.94-6.4-13.77-.92-2.23-1.93-4.32-3.04-6.47-1.97-3.91-3.51-7.85-4.93-11.99-.25-.72-.5-1.44-.76-2.18-1.94-5.65-3.8-11.32-5.61-17.01-.25-.76-.5-1.53-.75-2.31-2.61-8.28-4.22-16.61-5.54-25.19-.34-2.49-.34-2.49-1.46-4.5-.32-3.08-.52-6.16-.72-9.25-.12-2.71-.12-2.71-1.28-4.75-.1-1.99-.13-3.98-.13-5.98-.01-1.25-.01-2.51-.01-3.8v-17.18c.01-3.78.01-7.56 0-11.34V742.8190625c0-1.95 0-3.89.01-5.84v-3.36c.13-2.62.13-2.62 1.13-4.62.13-1.68.23-3.37.31-5.06.45-6.16 1.72-11.92 3.23-17.89 1.09-4.34 1.85-8.61 2.46-13.05.86-2.89 1.85-5.65 3-8.44.95-2.44 1.67-4.9 2.38-7.43 2.39-8.24 5.34-15.99 9.03-23.73 2.24-4.81 4.26-9.7 6.29-14.6 1.3-2.8 1.3-2.8 3.3-4.8.68-1.64 1.37-3.28 2.05-4.92 1.83-4.03 4.2-7.75 6.51-11.52.49-.82.99-1.65 1.5-2.5.47-.78.95-1.56 1.44-2.37.43-.71.86-1.42 1.31-2.15.39-.51.78-1.02 1.19-1.54h2c.08-.54.16-1.07.25-1.62 1.02-3.25 2.71-5.67 4.75-8.38h2c.2-.68.41-1.36.62-2.05 1.85-3.96 4.49-6.84 7.38-10.07 1.08-1.23 2.16-2.47 3.25-3.7.71-.81.71-.81 1.45-1.63 1.49-1.73 1.49-1.73 3.3-4.55h2c.26-.64.53-1.28.81-1.94 1.19-2.06 1.19-2.06 4.19-3.06l1-2c1-2 1-2 4-3l1-2c1-2 1-2 4-3v-2c1.57-1.58 1.57-1.58 3.68-3.37.73-.62 1.46-1.24 2.21-1.88 1.04-.86 1.04-.86 2.11-1.75.94-.8 1.89-1.61 2.87-2.44 2.13-1.56 2.13-1.56 4.13-1.56v-2c1.37-1.2 1.37-1.2 3.29-2.54 1.06-.74 1.06-.74 2.14-1.5.77-.52 1.53-1.04 2.32-1.58.77-.54 1.54-1.08 2.33-1.63 6.25-4.33 12.52-8.63 18.92-12.75.87-.56 1.74-1.13 2.64-1.71 2.36-1.29 2.36-1.29 5.36-1.29v-2c.51-.24 1.02-.48 1.55-.73l7.2-3.39c1.3-.62 1.3-.62 2.63-1.24 4.78-2.27 9.53-4.59 14.24-7.01 4.06-2.06 8.07-3.7 12.44-4.99 1.96-.59 1.96-.59 3.75-1.59 2.96-1.42 6.03-2.2 9.19-3.05 1.73-.48 3.47-.96 5.21-1.44 1.91-.52 3.82-1.04 5.72-1.56.95-.26 1.9-.52 2.88-.79 2.73-.74 5.46-1.48 8.19-2.21.66-.18 1.33-.37 2.01-.56 30.75-8.25 69.97-10.55 101.09-2.85 2.33.5 4.52.56 6.9.41 2.19-3.63 4.1-7.05 5.5-11.06 1.32-3.74 3.24-6.66 5.5-9.94 1.06-2.01 2.05-4.05 3.05-6.1 1.19-2.4 2.43-4.69 3.95-6.9h2c.07-.52.14-1.04.22-1.58 1.11-3.46 3.14-6.22 5.21-9.17.41-.6.82-1.2 1.24-1.82 1.05-1.52 2.18-2.98 3.33-4.43h2c.3-.62.61-1.24.93-1.87.69-1.38 1.38-2.75 2.07-4.13h2c.24-.56.49-1.11.75-1.69 1.47-2.73 3.18-4.99 5.25-7.31h2l1-3h2v-2c1.6-1.66 1.6-1.66 3.75-3.5.69-.61 1.39-1.22 2.1-1.84 1.99-1.54 3.86-2.63 6.15-3.66v-2l5-2v-2c1.38-1.26 1.38-1.26 3.34-2.69.72-.53 1.44-1.05 2.19-1.6.79-.56 1.59-1.13 2.4-1.71.81-.58 1.63-1.16 2.46-1.76 11.28-7.95 22.8-14.82 35.61-20 2.45-1.01 4.73-2.1 7.06-3.36 5.35-2.76 11.18-4.2 16.94-5.88 2.27-.7 4.54-1.41 6.81-2.12 36.7-11.49 79.53-11.37 116.19.12 1.14.33 2.29.66 3.47.99 4.51 1.29 8.97 2.7 13.44 4.11 2.69.78 5.33 1.4 8.09 1.9l2-4h2c.11-.58.22-1.16.34-1.76.71-2.44 1.67-3.98 3.14-6.04.52-.72 1.03-1.45 1.57-2.19.56-.77 1.12-1.53 1.7-2.32.57-.79 1.15-1.59 1.74-2.4 5.35-7.26 11.15-14.06 17.17-20.76 1.25-1.43 2.42-2.94 3.58-4.45.58-.68 1.16-1.37 1.76-2.08h2v-2c1.37-1.62 1.37-1.62 3-3h2v-2c1.5-1.51 1.5-1.51 3.56-3.25.72-.61 1.45-1.23 2.2-1.86.74-.62 1.47-1.25 2.24-1.89.66-.59 1.33-1.18 2.01-1.79.62-.54 1.23-1.09 1.86-1.65.55-.49 1.11-.98 1.68-1.49 1.45-1.07 1.45-1.07 3.45-1.07l1-3c1.55-1.39 1.55-1.39 3.43-2.69.93-.65.93-.65 1.87-1.32 1.7-.99 1.7-.99 3.7-.99v-2c1.42-1.29 1.42-1.29 3.31-2.62.92-.67.92-.67 1.86-1.36 1.83-1.02 1.83-1.02 4.83-1.02v-2c2.05-1.51 2.05-1.51 4.87-3.25 1.01-.62 2.03-1.25 3.07-1.89 1.01-.62 2.02-1.23 3.06-1.86.79-.5 1.58-1 2.39-1.51 6.94-4.31 14.2-7.92 21.54-11.49 1.35-.65 2.7-1.31 4.04-1.97 7.56-3.73 15.04-6.87 23.16-9.2 3.07-.89 6.01-1.96 8.98-3.11 5.71-2.18 11.43-3.95 17.42-5.19 1.73-.37 3.46-.78 5.18-1.21 29.74-7.4 67.95-11.03 98.09-3.78Zm-92.8 56.46c-1.34.32-2.67.64-4 .94-20.02 4.96-38.95 14.04-56.55 24.62-2.12 1.24-4.24 2.38-6.45 3.44v2h-3v2c-1.05.36-1.05.36-2.11.72-3.42 1.51-6.25 3.53-9.21 5.78-.55.4-1.1.81-1.66 1.22-1.38 1.04-2.71 2.16-4.02 3.28v2c-.87.4-.87.4-1.75.81-2.31 1.22-4.28 2.49-6.25 4.19v2c-1.49.5-1.49.5-3 1v2h-2v2c-1.49.5-1.49.5-3 1v2h-2v2c-1.49.5-1.49.5-3 1v2h-2c-1.78 2.05-3.43 4.1-5.07 6.25-.48.63-.97 1.26-1.47 1.92-1.5 1.94-2.98 3.88-4.46 5.83-.87 1.12-1.73 2.24-2.59 3.36-3.87 5.07-7.4 10.02-10.41 15.64-.96 1.57-1.92 3.13-2.88 4.69-2.3 3.78-4.28 7.63-6.19 11.62-2.14 4.36-4.13 7.57-7.93 10.69-.81.72-1.61 1.44-2.44 2.19-5.99 4.24-12.43 4.71-19.56 3.81-6.24-1.89-11.85-4.87-17.5-8.06-4.77-2.68-9.52-4.45-14.74-6.07-2.31-.73-4.52-1.53-6.76-2.43-8.02-3.04-16.18-4.7-24.73-5.23-2.27-.21-2.27-.21-5.27-1.21-2.85-.1-5.66-.14-8.5-.13h-2.53c-1.75-.01-3.51 0-5.27 0-2.69.01-5.39 0-8.08-.01-1.71 0-3.42.01-5.12.01-1.21 0-1.21 0-2.45-.01-3.27.02-5.93.1-9.05 1.14-1.48.08-2.96.14-4.44.19-17.36 1.49-37.84 9-52.44 18.46-3.24 2.06-6.66 3.68-10.12 5.35v2c-.54.08-1.08.17-1.63.25-3.25 1.03-5.66 2.72-8.37 4.75v2c-.54.25-1.08.5-1.63.75-2.96 1.56-5.67 3.29-8.37 5.25v2h-2c-1.67 1.33-1.67 1.33-3 3v2l-3 1v2h-2v2h-2c-2.05 2.17-2.05 2.17-4.13 4.88-.72.9-1.45 1.81-2.19 2.74-1.88 2.17-1.88 2.17-1.68 4.38h-2c-1.62 2.17-1.62 2.17-3.25 4.94-2.22 3.6-4.47 7.14-6.88 10.62-4.8 7.2-8.13 14.77-10.97 22.91-.75 2.08-1.59 4.13-2.47 6.16-1.12 2.63-2.02 5.15-2.87 7.87-2.8 8.46-6.85 13.65-14.26 18.65-3.5 1.3-6.99 1.23-10.68 1.23h-2.42c-6.48-.12-11.84-1.39-18-3.43-4.01-1.19-7.84-1.56-12-1.77-2.2-.18-2.2-.18-5.2-1.18-27.49-2.78-57.29-2.46-84 5l-1 1c-1.46.16-1.46.16-2.94.31-4.15.54-7.69 2.04-11.52 3.65-2.35.96-4.69 1.77-7.11 2.54-2.95.96-5.78 2.04-8.62 3.32-.78.35-1.57.71-2.37 1.07-.81.37-1.61.73-2.44 1.11-.78.35-1.56.71-2.37 1.07-12.22 5.47-12.22 5.47-23.6 12.47-2.48 1.78-5.06 3.4-7.66 5.02-4.23 2.69-8.41 5.36-12.37 8.44v2l-6 3v2c-.88.4-.88.4-1.78.81-9.65 5.15-18.72 15.52-25.22 24.19v2h-2c-2.4 2.64-2.4 2.64-3 6h-2l-1 4h-2v3h-2c-1.8 2.34-1.8 2.34-3.57 5.25-.62.98-1.24 1.95-1.88 2.95-1.31 2.37-2.1 4.16-2.55 6.8h-2l-1 5h-2c-7.29 14.66-7.29 14.66-13.28 29.86-.66 1.96-1.47 3.87-2.29 5.77-3.16 7.43-5.09 14.88-6.56 22.81-.33 1.77-.67 3.54-1.01 5.31-.21 1.15-.21 1.15-.43 2.33-.43 1.92-.43 1.92-1.43 3.92-.21 1.98-.37 3.96-.5 5.94-.23 3.29-.46 5.92-1.5 9.06-.1 1.5-.14 3-.15 4.49-.01.91-.01 1.82-.02 2.76v2.98c-.01 1.02-.01 2.05-.01 3.1-.01 2.18-.01 4.35-.01 6.53 0 3.27-.02 6.54-.04 9.82-.04 14.33.19 28.45 4.23 42.32.52 1.86.52 1.86 1.06 3.75.31 1.07.62 2.14.94 3.25.34 1.35.67 2.71 1 4.06 2.98 12.39 2.98 12.39 8 24.03 1.15 2.21 2.04 4.46 2.93 6.79 3.4 8.67 7.85 16.77 12.63 24.75.51.85 1.02 1.71 1.55 2.59 4.75 7.8 10.06 15.1 15.71 22.27 1 1.29 1.95 2.62 2.89 3.95.64.77.64.77 1.29 1.56h2c.25.57.51 1.15.78 1.74 1.33 2.47 2.87 4.4 4.72 6.51.6.71 1.21 1.41 1.84 2.14 1.51 1.84 1.51 1.84 3.66 1.61.49 1.49.49 1.49 1 3 1.75 1.85 1.75 1.85 3.87 3.63.7.61 1.4 1.22 2.12 1.85 2.03 1.71 2.03 1.71 5.01 2.52v2c2.09 1.8 4.17 3.47 6.37 5.13.6.46 1.21.93 1.83 1.41 3.05 2.6 3.05 2.6 6.8 3.46v2c1.01.57 2.02 1.14 3.07 1.72 3.69 2.11 7.25 4.39 10.8 6.72 7.58 4.9 15 9.28 23.45 12.53 2.96 1.14 5.88 2.36 8.8 3.59 4.59 1.92 9.19 3.76 13.88 5.44.98.36.98.36 1.99.72 5.58 1.93 11.15 3.27 16.94 4.41 1.68.33 3.35.67 5.03 1 .73.15 1.46.29 2.21.44 1.83.43 1.83.43 3.83 1.43 1.97.21 3.95.37 5.93.5 3.3.23 5.93.45 9.07 1.5 1.87.09 3.75.13 5.63.13H265.3946875c3.88.01 7.76 0 11.64 0h12.63c7.4.01 14.79.01 22.18 0h32.97c19.62.01 39.25.01 58.87.01 17.18-.01 34.35-.01 51.52-.01h3.45c4.62.01 9.24.01 13.85.01 43.35 0 86.7 0 130.04-.01h115.62c43.27.01 86.53.01 129.8.01 4.61 0 9.22 0 13.83-.01h3.44c17.16 0 34.33 0 51.49.01 19.52 0 39.03 0 58.54-.01h32.79c7.29.01 14.58.01 21.87 0h36.54c2.66-.02 2.66-.02 5.54-1.13 1.64-.15 3.29-.27 4.93-.37 8.28-.7 16.17-2.72 23.87-5.82 2.88-1.06 5.81-1.89 8.76-2.75 5.02-1.51 9-3.31 13.44-6.06 1.71-.73 3.43-1.46 5.14-2.18 8.5-3.76 16.48-9.1 24.23-14.19.66-.43 1.32-.86 2-1.3 1.58-1.06 3.11-2.19 4.63-3.33v-2l6-3v-2c.55-.25 1.11-.49 1.68-.75 5.13-2.77 8.69-6.66 12.42-11.04 1.95-2.27 3.95-4.49 5.96-6.71 6.62-6.49 6.62-6.49 9.94-14.5h2v-3h2c.61-1.14.61-1.14 1.24-2.3.81-1.49.81-1.49 1.63-3.01.53-.99 1.07-1.97 1.62-2.99 1.51-2.7 1.51-2.7 3.51-5.7v-3h2c.38-.91.77-1.81 1.17-2.75.52-1.23 1.05-2.46 1.58-3.69.27-.64.54-1.28.82-1.94 1.5-3.5 3.03-6.97 4.61-10.43 3.33-7.49 5.37-15.1 6.94-23.13.33-1.67.67-3.35 1.01-5.02.21-1.1.21-1.1.43-2.21.44-1.83.44-1.83 1.44-3.83.2-2.29.36-4.58.5-6.87.39-6.74.39-6.74 1-9 4.45-19.18.14-43.5-5.5-62.13-.67-2.33-1.34-4.67-2-7-1.89-6.59-3.72-12.96-6.99-19.01-1.97-3.86-3.46-7.95-5.01-11.99h-2c-.11-.73-.21-1.46-.32-2.21-.75-3.05-1.86-4.87-3.68-7.41-1.82-2.56-3.01-4.39-4-7.38h-2v-3h-2c-.24-.53-.47-1.06-.72-1.61-1.67-3.11-3.75-5.85-5.91-8.64-.44-.57-.89-1.15-1.34-1.74-3.68-4.7-7.68-8.92-12.03-13.01-5-5-5-5-6.69-6.81-1.27-1.41-1.27-1.41-3.31-1.19v-2c-2.64-2.4-2.64-2.4-6-3v-2c-2.12-1.6-4.22-3.06-6.44-4.5-.67-.44-1.34-.87-2.03-1.33-16.05-10.49-16.05-10.49-33.53-18.17-1.13-.41-2.25-.81-3.4-1.23-3.53-1.28-7.06-2.53-10.6-3.77-.82-.29-1.64-.58-2.48-.88-9.36-3.24-18.82-5.22-28.61-6.66-6.27-.99-10.67-2.73-15.91-6.46-.75-.31-1.49-.62-2.25-.94-2.52-1.52-2.84-3.32-3.75-6.06-.52-.84-.52-.84-1.04-1.69-1.36-3.25-1.35-6.4-1.34-9.87v-2.15c.11-5.47 1.26-9.9 3.42-14.94 1.27-3.12 1.59-6.01 1.96-9.35l1-1c.37-1.8.69-3.62 1-5.44.89-5.34.89-5.34 2-7.56 2.22-12.09 2.31-24.2 2.26-36.46-.01-3.1 0-6.2.01-9.29.01-10.93-.36-21.47-2.27-32.25-.15-.81-.29-1.61-.43-2.44-.35-1.82-.74-3.63-1.14-5.43-.25-1.16-.49-2.31-.75-3.5-.42-2.54-.42-2.54-1.68-3.63-.25-1.2-.5-2.39-.75-3.62-2.4-11.17-6.61-21.98-11.25-32.38-.31-.69-.61-1.38-.93-2.09-5-11.31-10.74-21.73-17.72-31.93-1.35-1.97-2.67-3.95-3.98-5.93-3.07-4.61-3.07-4.61-6.37-9.05h-2c-.24-.54-.48-1.08-.72-1.64-1.63-2.99-3.63-5.47-5.78-8.11-.8-.98-1.59-1.97-2.41-2.98-1.04-1.12-1.04-1.12-2.09-2.27h-2v-2c-1.34-1.67-1.34-1.67-3-3h-2v-2c-1.7-1.56-3.46-3.05-5.25-4.5-.98-.79-1.95-1.59-2.96-2.41-2.24-1.68-4.24-2.97-6.79-4.09v-2c-1.63-1.4-1.63-1.4-3.77-2.79-.8-.55-1.61-1.09-2.43-1.65-.86-.58-1.73-1.15-2.62-1.75-.88-.59-1.75-1.18-2.66-1.78-1.74-1.17-3.48-2.33-5.22-3.49-1.79-1.2-3.57-2.41-5.35-3.64-14.21-9.56-30.94-16.03-46.95-21.9-.67-.27-1.34-.54-2.02-.81-4.34-1.73-8.32-2.62-12.98-3.19l-1-1c-7.53-1.95-15.04-3.3-22.8-3.79-2.2-.21-2.2-.21-5.2-1.21-27.23-2.36-54.68-1.48-81 6Z" />
</svg>